<svg width="545" height="317" viewBox="0 0 545 317" fill="none" xmlns="http://www.w3.org/2000/svg">
<path d="M88.9899 133.486L279.373 184.017L270.282 220.306L79.8987 169.775L88.9899 133.486Z" fill="black"/>
<rect x="199.785" y="239.534" width="233.544" height="73.6296" fill="#0A040E"/>
<rect x="396.678" y="30.1776" width="100.577" height="197.824" rx="33" fill="black"/>
<path d="M169.953 215.179V43C169.953 23.67 185.623 8 204.953 8H417.081C436.41 8 452.081 23.67 452.081 43V215.179C452.081 234.509 436.411 250.179 417.081 250.179H204.953C185.623 250.179 169.953 234.509 169.953 215.179Z" fill="black" stroke="black" stroke-width="15"/>
<rect x="155.161" y="4" width="252.463" height="249.989" rx="31" fill="white" stroke="black" stroke-width="8"/>
<path d="M169.564 216.211V42.849C169.564 30.6987 179.413 20.849 191.564 20.849H368.101C380.251 20.849 390.101 30.6987 390.101 42.849V216.211C390.101 228.361 380.251 238.211 368.101 238.211H191.564C179.413 238.211 169.564 228.361 169.564 216.211Z" fill="#C4C4C4" stroke="black" stroke-width="6"/>
<rect x="188.289" y="24.0612" width="198.691" height="210.938" rx="19" fill="black"/>
<path d="M200.295 274.357H357.23C359.009 274.357 359.902 276.505 358.648 277.767L341.977 294.537C341.609 294.908 341.111 295.119 340.589 295.127L174.567 297.668C172.629 297.698 171.786 295.231 173.337 294.069L199.095 274.756C199.441 274.497 199.862 274.357 200.295 274.357Z" fill="white" stroke="black" stroke-width="4"/>
<path d="M174.564 295.819H335.168C336.273 295.82 337.168 296.715 337.168 297.819V308.163C337.168 309.268 336.273 310.164 335.168 310.164H174.564C173.459 310.164 172.564 309.268 172.564 308.164V297.819L172.574 297.615C172.677 296.607 173.528 295.819 174.564 295.819Z" fill="#D9D9D9" stroke="black" stroke-width="6"/>
<path d="M204.651 283.502H324.837C326.734 283.502 327.707 285.776 326.397 287.149C325.986 287.579 325.415 287.821 324.82 287.817L204.638 286.912C202.943 286.899 202.303 284.689 203.729 283.773C204.004 283.596 204.324 283.502 204.651 283.502Z" fill="black" stroke="black"/>
<g filter="url(#filter0_i_42_85)">
<path d="M418.413 285.663H453.359L434.607 304.293H397.53L418.413 285.663Z" fill="white"/>
<path d="M453.359 285.663L468.701 301.188V313.164H434.607V304.293L453.359 285.663Z" fill="black"/>
</g>
<path d="M467.701 301.598V312.163H435.607V304.708L453.352 287.078L467.701 301.598ZM450.934 286.663L434.195 303.292H400.153L418.794 286.663H450.934Z" stroke="black" stroke-width="2"/>
<g filter="url(#filter1_i_42_85)">
<path d="M398.383 305.18H434.181V312.276H398.383V305.18Z" fill="#C3C3C3"/>
</g>
<path d="M434.681 304.68V312.776H397.883V304.68H434.681Z" stroke="black"/>
<g filter="url(#filter2_d_42_85)">
<path d="M431.505 286.839C431.898 286.376 432.48 286.117 433.087 286.135L433.654 286.151C434.482 286.175 434.923 287.136 434.403 287.78L429.035 294.417C428.748 294.772 428.316 294.978 427.86 294.978C426.571 294.978 425.873 293.47 426.707 292.488L431.505 286.839Z" fill="black"/>
<path d="M433.073 286.634L433.64 286.651C434.054 286.663 434.274 287.144 434.014 287.465L428.646 294.102C428.454 294.339 428.165 294.478 427.86 294.478C426.998 294.478 426.53 293.468 427.088 292.811L431.886 287.163C432.181 286.816 432.618 286.621 433.073 286.634Z" stroke="black"/>
</g>
<path d="M473.842 173.431L500.545 176.903C514.844 178.762 527.437 187.235 534.547 199.779L534.853 200.321C536.819 203.789 538.242 207.537 539.073 211.436L540.19 216.673C541.696 223.734 541.073 231.084 538.4 237.791C535.732 244.485 530.161 249.599 523.264 251.687L507.606 256.427C502.289 258.037 496.526 256.261 493.038 251.936L491.954 250.592C489.22 247.202 488.989 242.435 491.381 238.797C495.512 232.517 503.899 230.679 510.277 234.658L511.61 235.489C514.457 237.266 516.728 239.83 518.147 242.872L521.566 250.202C522.683 252.599 523.377 255.171 523.616 257.805C524.617 268.834 517.715 279.044 507.107 282.225L457.195 297.196" stroke="black" stroke-width="7"/>
<circle cx="334.883" cy="104.251" r="32.6082" fill="white"/>
<circle cx="251.352" cy="104.251" r="32.6082" fill="white"/>
<ellipse cx="249.221" cy="104.694" rx="19.604" ry="20.4034" fill="black"/>
<ellipse cx="238.993" cy="93.6055" rx="6.81879" ry="6.65328" fill="white"/>
<ellipse cx="336.161" cy="104.694" rx="19.604" ry="20.4034" fill="black"/>
<ellipse cx="325.933" cy="93.6055" rx="6.81879" ry="6.65328" fill="white"/>
<path d="M228.593 163.639C235.11 161.168 242.413 162.08 248.628 165.234C257.416 169.693 271.115 175.221 285.02 175.219C299.696 175.217 315.5 169.057 325.186 164.498C331.163 161.686 338.055 161.048 344.238 163.373C361.056 169.698 362.923 191.813 346.514 199.135C327.861 207.459 305.511 215.165 286.732 215.139C267.748 215.113 245.112 207.175 226.376 198.723C210.36 191.498 212.165 169.87 228.593 163.639Z" fill="white"/>
<line x1="2.5" y1="-2.5" x2="492.678" y2="-2.5" transform="matrix(0.999979 0.00648705 -0.00612299 0.999981 32.2484 313.164)" stroke="black" stroke-width="5" stroke-linecap="round"/>
<path d="M51.963 121.019C53.8442 115.588 59.0637 112.092 64.793 112.425L82.7014 113.469L108.188 118.823C123.542 121.1 133.22 136.854 128.318 151.59L121.443 172.257C117.891 182.937 107.144 189.359 96.0571 187.427L68.6577 182.651L53.0537 178.249L45.6248 176.389C39.3032 174.806 35.6607 168.084 37.7914 161.933L51.963 121.019Z" fill="black"/>
<g filter="url(#filter3_d_42_85)">
<rect x="90.0171" y="60.5077" width="18.4577" height="185.177" transform="rotate(16.9727 90.0171 60.5077)" fill="black" stroke="black" stroke-width="2"/>
<mask id="path-28-inside-1_42_85" fill="white">
<path d="M113.94 21.8867C124.81 28.2415 129.43 42.2566 125.559 54.9393C121.111 69.5123 109.12 78.1293 94.5463 73.6813C79.973 69.2333 67.2838 49.4593 71.7315 34.8862C74.9085 24.4769 84.958 18.8623 95.7524 18.1243L83.9481 46.6351L93.3689 56.6802L107.752 51.7729L113.94 21.8867Z"/>
</mask>
<path d="M113.94 21.8867C124.81 28.2415 129.43 42.2566 125.559 54.9393C121.111 69.5123 109.12 78.1293 94.5463 73.6813C79.973 69.2333 67.2838 49.4593 71.7315 34.8862C74.9085 24.4769 84.958 18.8623 95.7524 18.1243L83.9481 46.6351L93.3689 56.6802L107.752 51.7729L113.94 21.8867Z" fill="black"/>
<path d="M113.94 21.8867L114.949 20.1604L112.546 18.7554L111.982 21.4813L113.94 21.8867ZM125.559 54.9393L127.472 55.523L127.472 55.523L125.559 54.9393ZM94.5463 73.6813L93.9625 75.594L93.9625 75.594L94.5463 73.6813ZM71.7315 34.8862L69.8188 34.3025L69.8188 34.3025L71.7315 34.8862ZM95.7524 18.1243L97.6 18.8893L98.8339 15.9093L95.616 16.1293L95.7524 18.1243ZM83.9481 46.6351L82.1005 45.8701L81.607 47.0621L82.4895 48.0031L83.9481 46.6351ZM93.3689 56.6802L91.9102 58.0482L92.7931 58.9896L94.0146 58.5728L93.3689 56.6802ZM107.752 51.7729L108.398 53.6655L109.479 53.2967L109.711 52.1783L107.752 51.7729ZM113.94 21.8867L112.931 23.6131C122.885 29.4324 127.288 42.4241 123.647 54.3555L125.559 54.9393L127.472 55.523C131.572 42.089 126.735 27.0505 114.949 20.1604L113.94 21.8867ZM125.559 54.9393L123.647 54.3555C121.533 61.2803 117.674 66.6405 112.777 69.7559C107.917 72.8475 101.885 73.8303 95.13 71.7687L94.5463 73.6813L93.9625 75.594C101.781 77.9803 109.032 76.8786 114.923 73.1304C120.777 69.4061 125.138 63.1713 127.472 55.523L125.559 54.9393ZM94.5463 73.6813L95.1301 71.7687C88.4313 69.7241 81.971 64.0631 77.7161 57.044C73.4547 50.0143 71.6431 42.0265 73.6441 35.47L71.7315 34.8862L69.8188 34.3025C67.3722 42.319 69.6813 51.5047 74.2959 59.1173C78.917 66.7405 86.0879 73.1905 93.9625 75.594L94.5463 73.6813ZM71.7315 34.8862L73.6441 35.47C76.4994 26.1149 85.6115 20.8221 95.8888 20.1194L95.7524 18.1243L95.616 16.1293C84.3045 16.9026 73.3176 22.839 69.8188 34.3025L71.7315 34.8862ZM95.7524 18.1243L93.9048 17.3594L82.1005 45.8701L83.9481 46.6351L85.7957 47.4001L97.6 18.8893L95.7524 18.1243ZM83.9481 46.6351L82.4895 48.0031L91.9102 58.0482L93.3689 56.6802L94.8275 55.3122L85.4067 45.2671L83.9481 46.6351ZM93.3689 56.6802L94.0146 58.5728L108.398 53.6655L107.752 51.7729L107.107 49.8802L92.7232 54.7876L93.3689 56.6802ZM107.752 51.7729L109.711 52.1783L115.898 22.2922L113.94 21.8867L111.982 21.4813L105.794 51.3674L107.752 51.7729Z" fill="black" mask="url(#path-28-inside-1_42_85)"/>
<mask id="path-30-inside-2_42_85" fill="white">
<path d="M46.6105 255.289L37.0866 245.488L25.1485 248.739L21.0337 273.466C11.1595 267.709 4.8774 258.139 8.35634 246.74C12.8047 232.165 33.7026 218.35 48.2744 222.798C62.846 227.245 70.8471 244.3 66.3988 258.875C62.5553 271.468 49.051 279.407 36.0504 278.466L46.6105 255.289Z"/>
</mask>
<path d="M46.6105 255.289L37.0866 245.488L25.1485 248.739L21.0337 273.466C11.1595 267.709 4.8774 258.139 8.35634 246.74C12.8047 232.165 33.7026 218.35 48.2744 222.798C62.846 227.245 70.8471 244.3 66.3988 258.875C62.5553 271.468 49.051 279.407 36.0504 278.466L46.6105 255.289Z" fill="black"/>
<path d="M46.6105 255.289L48.4303 256.119L48.9966 254.875L48.0447 253.896L46.6105 255.289ZM37.0866 245.488L38.5208 244.095L37.699 243.249L36.5613 243.559L37.0866 245.488ZM25.1485 248.739L24.6231 246.809L23.3863 247.146L23.1758 248.411L25.1485 248.739ZM21.0337 273.466L20.0265 275.194L22.5305 276.654L23.0063 273.794L21.0337 273.466ZM8.35634 246.74L6.4437 246.156L6.4437 246.156L8.35634 246.74ZM48.2744 222.798L48.8582 220.885L48.8582 220.885L48.2744 222.798ZM66.3988 258.875L68.3114 259.459L68.3114 259.459L66.3988 258.875ZM36.0504 278.466L34.2307 277.637L33.0387 280.253L35.906 280.46L36.0504 278.466ZM46.6105 255.289L48.0447 253.896L38.5208 244.095L37.0866 245.488L35.6525 246.882L45.1764 256.683L46.6105 255.289ZM37.0866 245.488L36.5613 243.559L24.6231 246.809L25.1485 248.739L25.6738 250.668L37.612 247.418L37.0866 245.488ZM25.1485 248.739L23.1758 248.411L19.0611 273.138L21.0337 273.466L23.0063 273.794L27.1211 249.067L25.1485 248.739ZM21.0337 273.466L22.041 271.739C12.6297 266.251 7.16051 257.509 10.269 247.324L8.35634 246.74L6.4437 246.156C2.5943 258.769 9.68924 269.167 20.0265 275.194L21.0337 273.466ZM8.35634 246.74L10.269 247.324C12.3102 240.636 18.244 233.885 25.5738 229.334C32.9227 224.772 41.176 222.722 47.6906 224.71L48.2744 222.798L48.8582 220.885C40.801 218.426 31.3194 221.06 23.4643 225.936C15.5902 230.825 8.85083 238.269 6.4437 246.156L8.35634 246.74ZM48.2744 222.798L47.6906 224.71C61.0918 228.801 68.648 244.655 64.4861 258.291L66.3988 258.875L68.3114 259.459C73.0461 243.945 64.6002 225.69 48.8582 220.885L48.2744 222.798ZM66.3988 258.875L64.4861 258.291C60.9544 269.862 48.4059 277.356 36.1949 276.471L36.0504 278.466L35.906 280.46C49.6961 281.459 64.1562 273.073 68.3114 259.459L66.3988 258.875ZM36.0504 278.466L37.8702 279.295L48.4303 256.119L46.6105 255.289L44.7908 254.46L34.2307 277.637L36.0504 278.466Z" fill="black" mask="url(#path-30-inside-2_42_85)"/>
</g>
<g filter="url(#filter4_d_42_85)">
<rect x="82.6573" y="59.4639" width="18.4571" height="185.182" transform="rotate(16.9727 82.6573 59.4639)" fill="white" stroke="black" stroke-width="2"/>
<mask id="path-33-inside-3_42_85" fill="white">
<path d="M81.2585 46.5066L93.3969 59.1708L107.117 53.3668L113.552 25.6083C121.367 32.5498 124.878 43.6523 121.627 54.3038C117.179 68.8771 101.759 77.0855 87.1866 72.6379C72.6136 68.1901 64.405 52.7701 68.8529 38.1967C72.3377 26.7789 82.5573 19.2693 93.8277 18.6908L81.2585 46.5066Z"/>
</mask>
<path d="M81.2585 46.5066L93.3969 59.1708L107.117 53.3668L113.552 25.6083C121.367 32.5498 124.878 43.6523 121.627 54.3038C117.179 68.8771 101.759 77.0855 87.1866 72.6379C72.6136 68.1901 64.405 52.7701 68.8529 38.1967C72.3377 26.7789 82.5573 19.2693 93.8277 18.6908L81.2585 46.5066Z" fill="white"/>
<path d="M81.2585 46.5066L79.4362 45.6831L78.8797 46.9147L79.8148 47.8904L81.2585 46.5066ZM93.3969 59.1708L91.9532 60.5546L92.9068 61.5495L94.176 61.0126L93.3969 59.1708ZM107.117 53.3668L107.896 55.2085L108.835 54.8114L109.065 53.8184L107.117 53.3668ZM113.552 25.6083L114.88 24.1133L112.364 21.8782L111.604 25.1567L113.552 25.6083ZM121.627 54.3038L123.539 54.8876L123.539 54.8876L121.627 54.3038ZM87.1866 72.6379L86.6028 74.5506L86.6028 74.5506L87.1866 72.6379ZM68.8529 38.1967L66.9402 37.6129L66.9402 37.6129L68.8529 38.1967ZM93.8277 18.6908L95.65 19.5142L97.0005 16.5255L93.7252 16.6936L93.8277 18.6908ZM81.2585 46.5066L79.8148 47.8904L91.9532 60.5546L93.3969 59.1708L94.8405 57.7871L82.7022 45.1229L81.2585 46.5066ZM93.3969 59.1708L94.176 61.0126L107.896 55.2085L107.117 53.3668L106.338 51.525L92.6178 57.3291L93.3969 59.1708ZM107.117 53.3668L109.065 53.8184L115.5 26.06L113.552 25.6083L111.604 25.1567L105.169 52.9151L107.117 53.3668ZM113.552 25.6083L112.224 27.1034C119.476 33.5452 122.729 43.8437 119.714 53.7201L121.627 54.3038L123.539 54.8876C127.027 43.4609 123.257 31.5545 114.88 24.1133L113.552 25.6083ZM121.627 54.3038L119.714 53.7201C115.589 67.2371 101.287 74.8504 87.7703 70.7253L87.1866 72.6379L86.6028 74.5506C102.232 79.3205 118.769 70.5172 123.539 54.8876L121.627 54.3038ZM87.1866 72.6379L87.7703 70.7253C74.2537 66.5999 66.64 52.2976 70.7655 38.7804L68.8529 38.1967L66.9402 37.6129C62.1699 53.2427 70.9735 69.7804 86.6028 74.5506L87.1866 72.6379ZM68.8529 38.1967L70.7655 38.7804C73.9968 28.1934 83.4735 21.2246 93.9302 20.6879L93.8277 18.6908L93.7252 16.6936C81.641 17.3139 70.6786 25.3645 66.9402 37.6129L68.8529 38.1967ZM93.8277 18.6908L92.0054 17.8673L79.4362 45.6831L81.2585 46.5066L83.0808 47.3301L95.65 19.5142L93.8277 18.6908Z" fill="black" mask="url(#path-33-inside-3_42_85)"/>
<mask id="path-35-inside-4_42_85" fill="white">
<path d="M16.0388 269.618C7.81334 262.85 4.01886 251.556 7.32168 240.734C11.6962 226.401 26.8616 218.328 41.1939 222.702C55.5263 227.076 66.5103 243.33 62.1358 257.663C58.9541 268.087 48.5246 274.624 37.5588 275.731L48.1284 254.353L34.8105 242.841L19.2642 245.544L16.0388 269.618Z"/>
</mask>
<path d="M16.0388 269.618C7.81334 262.85 4.01886 251.556 7.32168 240.734C11.6962 226.401 26.8616 218.328 41.1939 222.702C55.5263 227.076 66.5103 243.33 62.1358 257.663C58.9541 268.087 48.5246 274.624 37.5588 275.731L48.1284 254.353L34.8105 242.841L19.2642 245.544L16.0388 269.618Z" fill="white"/>
<path d="M16.0388 269.618L14.7682 271.162L17.5435 273.446L18.0208 269.884L16.0388 269.618ZM7.32168 240.734L5.40904 240.15L5.40904 240.15L7.32168 240.734ZM41.1939 222.702L41.7777 220.789L41.7777 220.789L41.1939 222.702ZM62.1358 257.663L64.0484 258.246L64.0484 258.246L62.1358 257.663ZM37.5588 275.731L35.7662 274.845L34.1649 278.084L37.7597 277.721L37.5588 275.731ZM48.1284 254.353L49.921 255.24L50.6068 253.852L49.4361 252.84L48.1284 254.353ZM34.8105 242.841L36.1182 241.328L35.4014 240.709L34.468 240.871L34.8105 242.841ZM19.2642 245.544L18.9217 243.573L17.4769 243.825L17.2822 245.278L19.2642 245.544ZM16.0388 269.618L17.3093 268.074C9.68671 261.802 6.17591 251.338 9.23432 241.318L7.32168 240.734L5.40904 240.15C1.86181 251.773 5.93997 263.899 14.7682 271.162L16.0388 269.618ZM7.32168 240.734L9.23431 241.318C13.2865 228.041 27.3342 220.563 40.6102 224.615L41.1939 222.702L41.7777 220.789C26.389 216.093 10.106 224.761 5.40904 240.15L7.32168 240.734ZM41.1939 222.702L40.6102 224.615C47.2713 226.648 53.2231 231.474 56.9829 237.506C60.7404 243.533 62.2055 250.584 60.2231 257.079L62.1358 257.663L64.0484 258.246C66.4406 250.409 64.6009 242.166 60.377 235.39C56.1554 228.618 49.449 223.131 41.7777 220.789L41.1939 222.702ZM62.1358 257.663L60.2231 257.079C57.3427 266.516 47.774 272.69 37.3579 273.741L37.5588 275.731L37.7597 277.721C49.2752 276.558 60.5655 269.658 64.0484 258.246L62.1358 257.663ZM37.5588 275.731L39.3514 276.617L49.921 255.24L48.1284 254.353L46.3358 253.467L35.7662 274.845L37.5588 275.731ZM48.1284 254.353L49.4361 252.84L36.1182 241.328L34.8105 242.841L33.5027 244.354L46.8206 255.866L48.1284 254.353ZM34.8105 242.841L34.468 240.871L18.9217 243.573L19.2642 245.544L19.6067 247.514L35.153 244.811L34.8105 242.841ZM19.2642 245.544L17.2822 245.278L14.0567 269.353L16.0388 269.618L18.0208 269.884L21.2462 245.809L19.2642 245.544Z" fill="black" mask="url(#path-35-inside-4_42_85)"/>
</g>
<g filter="url(#filter5_d_42_85)">
<rect width="49.7308" height="17.102" rx="8.55099" transform="matrix(0.966535 0.256533 -0.24301 0.970024 54.2089 107.921)" fill="white"/>
<rect x="0.723526" y="1.22656" width="47.7308" height="15.102" rx="7.55099" transform="matrix(0.966535 0.256533 -0.24301 0.970024 54.5311 107.772)" stroke="black" stroke-width="2"/>
</g>
<path d="M96.0362 122.987C97.1548 123.224 97.8592 124.353 97.5812 125.463L96.3877 130.227C96.1095 131.336 94.9624 131.974 93.8721 131.625L89.5587 130.243C88.5437 129.917 87.9505 128.851 88.2093 127.817L89.291 123.5C89.5499 122.467 90.57 121.829 91.6112 122.05L96.0362 122.987Z" fill="#595959" stroke="black" stroke-width="2"/>
<g filter="url(#filter6_d_42_85)">
<rect width="46.3833" height="17.102" rx="8.55099" transform="matrix(0.966535 0.256533 -0.24301 0.970024 38.9172 152.147)" fill="white"/>
<rect x="0.723526" y="1.22656" width="44.3833" height="15.102" rx="7.55099" transform="matrix(0.966535 0.256533 -0.24301 0.970024 39.2395 151.999)" stroke="black" stroke-width="2"/>
</g>
<path d="M77.6544 166.405C78.7768 166.638 79.4857 167.77 79.2069 168.883L78.0191 173.624C77.7402 174.737 76.588 175.375 75.496 175.02L71.8626 173.841C70.8514 173.512 70.2614 172.449 70.5196 171.418L71.6065 167.08C71.8648 166.049 72.8807 165.413 73.9198 165.629L77.6544 166.405Z" fill="#595959" stroke="black" stroke-width="2"/>
<g filter="url(#filter7_d_42_85)">
<rect width="52.8414" height="17.102" rx="8.55099" transform="matrix(0.966535 0.256533 -0.24301 0.970024 47.8473 121.499)" fill="white"/>
<rect x="0.723526" y="1.22656" width="50.8414" height="15.102" rx="7.55099" transform="matrix(0.966535 0.256533 -0.24301 0.970024 48.1696 121.351)" stroke="black" stroke-width="2"/>
</g>
<path d="M93.6537 138.197C94.7694 138.436 95.4713 139.564 95.194 140.671L93.996 145.453C93.7185 146.561 92.5742 147.199 91.4849 146.854L86.5407 145.285C85.5228 144.962 84.9263 143.895 85.1854 142.859L86.2631 138.558C86.5225 137.522 87.5463 136.884 88.5892 137.108L93.6537 138.197Z" fill="#595959" stroke="black" stroke-width="2"/>
<g filter="url(#filter8_d_42_85)">
<rect width="50.9985" height="17.102" rx="8.55099" transform="matrix(0.966535 0.256533 -0.24301 0.970024 43.5881 136.774)" fill="white"/>
<rect x="0.723526" y="1.22656" width="48.9985" height="15.102" rx="7.55099" transform="matrix(0.966535 0.256533 -0.24301 0.970024 43.9104 136.625)" stroke="black" stroke-width="2"/>
</g>
<path d="M86.5853 152.144C87.7027 152.383 88.406 153.512 88.1281 154.621L86.9328 159.392C86.6548 160.501 85.5089 161.139 84.4191 160.791L79.8489 159.333C78.8326 159.008 78.2376 157.942 78.4965 156.908L79.5765 152.597C79.8355 151.563 80.8578 150.924 81.8998 151.146L86.5853 152.144Z" fill="#595959" stroke="black" stroke-width="2"/>
<g filter="url(#filter9_d_42_85)">
<path d="M74.6407 148.526C72.954 144.627 74.2079 140.057 77.6559 137.538L89.6661 128.762C93.4079 126.027 97.6609 124.082 102.166 123.044L107.791 121.748C113.36 120.464 118.794 124.239 119.529 129.903C120.189 134.984 116.364 139.575 111.25 139.839L107.925 140.011C103.44 140.242 99.1341 141.892 95.6249 144.723L87.1439 151.564C82.9652 154.935 76.7609 153.427 74.6407 148.526Z" fill="white"/>
<path d="M108.008 122.723C113.004 121.572 117.878 124.958 118.538 130.04C119.123 134.54 115.735 138.606 111.205 138.84L107.881 139.011C103.185 139.254 98.6762 140.981 95.0019 143.945L86.5205 150.786C82.8567 153.741 77.4173 152.42 75.5582 148.123C74.0574 144.653 75.1724 140.587 78.2402 138.345L90.2507 129.568C93.8824 126.915 98.0107 125.027 102.383 124.019L108.008 122.723Z" stroke="black" stroke-width="2"/>
</g>
<path d="M79.4582 136.951L82.524 137.067C82.9029 137.082 83.1253 137.497 82.9285 137.824L78.1982 145.667C78.1848 145.69 78.1622 145.705 78.1366 145.708L77.3723 145.813C76.3412 145.955 75.2959 145.758 74.39 145.256L74.4279 144.403C74.4576 143.748 74.5603 143.098 74.7337 142.465C74.794 142.245 74.8729 142.03 74.9683 141.823L75.1127 141.509C75.4706 140.731 75.9149 139.995 76.4379 139.316L76.7245 138.944C77.2079 138.317 77.8129 137.793 78.5019 137.405L79.1937 137.015C79.2745 136.969 79.366 136.947 79.4582 136.951Z" fill="#595959" stroke="black"/>
<rect width="15.5989" height="53.6597" rx="7.79946" transform="matrix(0.957527 0.288345 -0.273405 0.961899 124.939 133.278)" fill="black"/>
<defs>
<filter id="filter0_i_42_85" x="397.53" y="285.663" width="73.1711" height="29.5002" filterUnits="userSpaceOnUse" color-interpolation-filters="sRGB">
<feFlood flood-opacity="0" result="BackgroundImageFix"/>
<feBlend mode="normal" in="SourceGraphic" in2="BackgroundImageFix" result="shape"/>
<feColorMatrix in="SourceAlpha" type="matrix" values="0 0 0 0 0 0 0 0 0 0 0 0 0 0 0 0 0 0 127 0" result="hardAlpha"/>
<feOffset dx="2" dy="3"/>
<feGaussianBlur stdDeviation="1"/>
<feComposite in2="hardAlpha" operator="arithmetic" k2="-1" k3="1"/>
<feColorMatrix type="matrix" values="0 0 0 0 0 0 0 0 0 0 0 0 0 0 0 0 0 0 0.25 0"/>
<feBlend mode="normal" in2="shape" result="effect1_innerShadow_42_85"/>
</filter>
<filter id="filter1_i_42_85" x="397.383" y="304.18" width="38.7987" height="10.0968" filterUnits="userSpaceOnUse" color-interpolation-filters="sRGB">
<feFlood flood-opacity="0" result="BackgroundImageFix"/>
<feBlend mode="normal" in="SourceGraphic" in2="BackgroundImageFix" result="shape"/>
<feColorMatrix in="SourceAlpha" type="matrix" values="0 0 0 0 0 0 0 0 0 0 0 0 0 0 0 0 0 0 127 0" result="hardAlpha"/>
<feOffset dx="2" dy="2"/>
<feGaussianBlur stdDeviation="0.5"/>
<feComposite in2="hardAlpha" operator="arithmetic" k2="-1" k3="1"/>
<feColorMatrix type="matrix" values="0 0 0 0 0 0 0 0 0 0 0 0 0 0 0 0 0 0 0.29 0"/>
<feBlend mode="normal" in2="shape" result="effect1_innerShadow_42_85"/>
</filter>
<filter id="filter2_d_42_85" x="425.345" y="285.134" width="12.2821" height="12.8441" filterUnits="userSpaceOnUse" color-interpolation-filters="sRGB">
<feFlood flood-opacity="0" result="BackgroundImageFix"/>
<feColorMatrix in="SourceAlpha" type="matrix" values="0 0 0 0 0 0 0 0 0 0 0 0 0 0 0 0 0 0 127 0" result="hardAlpha"/>
<feOffset dx="1" dy="1"/>
<feGaussianBlur stdDeviation="1"/>
<feComposite in2="hardAlpha" operator="out"/>
<feColorMatrix type="matrix" values="0 0 0 0 0 0 0 0 0 0 0 0 0 0 0 0 0 0 0.25 0"/>
<feBlend mode="normal" in2="BackgroundImageFix" result="effect1_dropShadow_42_85"/>
<feBlend mode="normal" in="SourceGraphic" in2="effect1_dropShadow_42_85" result="shape"/>
</filter>
<filter id="filter3_d_42_85" x="3.38812" y="18.1243" width="127.523" height="268.417" filterUnits="userSpaceOnUse" color-interpolation-filters="sRGB">
<feFlood flood-opacity="0" result="BackgroundImageFix"/>
<feColorMatrix in="SourceAlpha" type="matrix" values="0 0 0 0 0 0 0 0 0 0 0 0 0 0 0 0 0 0 127 0" result="hardAlpha"/>
<feOffset dy="4"/>
<feGaussianBlur stdDeviation="2"/>
<feComposite in2="hardAlpha" operator="out"/>
<feColorMatrix type="matrix" values="0 0 0 0 0 0 0 0 0 0 0 0 0 0 0 0 0 0 0.25 0"/>
<feBlend mode="normal" in2="BackgroundImageFix" result="effect1_dropShadow_42_85"/>
<feBlend mode="normal" in="SourceGraphic" in2="effect1_dropShadow_42_85" result="shape"/>
</filter>
<filter id="filter4_d_42_85" x="2.13293" y="18.6908" width="124.703" height="265.04" filterUnits="userSpaceOnUse" color-interpolation-filters="sRGB">
<feFlood flood-opacity="0" result="BackgroundImageFix"/>
<feColorMatrix in="SourceAlpha" type="matrix" values="0 0 0 0 0 0 0 0 0 0 0 0 0 0 0 0 0 0 127 0" result="hardAlpha"/>
<feOffset dy="4"/>
<feGaussianBlur stdDeviation="2"/>
<feComposite in2="hardAlpha" operator="out"/>
<feColorMatrix type="matrix" values="0 0 0 0 0 0 0 0 0 0 0 0 0 0 0 0 0 0 0.25 0"/>
<feBlend mode="normal" in2="BackgroundImageFix" result="effect1_dropShadow_42_85"/>
<feBlend mode="normal" in="SourceGraphic" in2="effect1_dropShadow_42_85" result="shape"/>
</filter>
<filter id="filter5_d_42_85" x="47.8716" y="106.828" width="52.585" height="29.5343" filterUnits="userSpaceOnUse" color-interpolation-filters="sRGB">
<feFlood flood-opacity="0" result="BackgroundImageFix"/>
<feColorMatrix in="SourceAlpha" type="matrix" values="0 0 0 0 0 0 0 0 0 0 0 0 0 0 0 0 0 0 127 0" result="hardAlpha"/>
<feOffset dx="-2" dy="-1"/>
<feGaussianBlur stdDeviation="1"/>
<feComposite in2="hardAlpha" operator="out"/>
<feColorMatrix type="matrix" values="0 0 0 0 0 0 0 0 0 0 0 0 0 0 0 0 0 0 0.17 0"/>
<feBlend mode="normal" in2="BackgroundImageFix" result="effect1_dropShadow_42_85"/>
<feBlend mode="normal" in="SourceGraphic" in2="effect1_dropShadow_42_85" result="shape"/>
</filter>
<filter id="filter6_d_42_85" x="32.58" y="151.054" width="49.3495" height="28.6755" filterUnits="userSpaceOnUse" color-interpolation-filters="sRGB">
<feFlood flood-opacity="0" result="BackgroundImageFix"/>
<feColorMatrix in="SourceAlpha" type="matrix" values="0 0 0 0 0 0 0 0 0 0 0 0 0 0 0 0 0 0 127 0" result="hardAlpha"/>
<feOffset dx="-2" dy="-1"/>
<feGaussianBlur stdDeviation="1"/>
<feComposite in2="hardAlpha" operator="out"/>
<feColorMatrix type="matrix" values="0 0 0 0 0 0 0 0 0 0 0 0 0 0 0 0 0 0 0.17 0"/>
<feBlend mode="normal" in2="BackgroundImageFix" result="effect1_dropShadow_42_85"/>
<feBlend mode="normal" in="SourceGraphic" in2="effect1_dropShadow_42_85" result="shape"/>
</filter>
<filter id="filter7_d_42_85" x="41.5101" y="120.406" width="55.5916" height="30.3322" filterUnits="userSpaceOnUse" color-interpolation-filters="sRGB">
<feFlood flood-opacity="0" result="BackgroundImageFix"/>
<feColorMatrix in="SourceAlpha" type="matrix" values="0 0 0 0 0 0 0 0 0 0 0 0 0 0 0 0 0 0 127 0" result="hardAlpha"/>
<feOffset dx="-2" dy="-1"/>
<feGaussianBlur stdDeviation="1"/>
<feComposite in2="hardAlpha" operator="out"/>
<feColorMatrix type="matrix" values="0 0 0 0 0 0 0 0 0 0 0 0 0 0 0 0 0 0 0.17 0"/>
<feBlend mode="normal" in2="BackgroundImageFix" result="effect1_dropShadow_42_85"/>
<feBlend mode="normal" in="SourceGraphic" in2="effect1_dropShadow_42_85" result="shape"/>
</filter>
<filter id="filter8_d_42_85" x="37.2509" y="135.68" width="53.8104" height="29.8595" filterUnits="userSpaceOnUse" color-interpolation-filters="sRGB">
<feFlood flood-opacity="0" result="BackgroundImageFix"/>
<feColorMatrix in="SourceAlpha" type="matrix" values="0 0 0 0 0 0 0 0 0 0 0 0 0 0 0 0 0 0 127 0" result="hardAlpha"/>
<feOffset dx="-2" dy="-1"/>
<feGaussianBlur stdDeviation="1"/>
<feComposite in2="hardAlpha" operator="out"/>
<feColorMatrix type="matrix" values="0 0 0 0 0 0 0 0 0 0 0 0 0 0 0 0 0 0 0.17 0"/>
<feBlend mode="normal" in2="BackgroundImageFix" result="effect1_dropShadow_42_85"/>
<feBlend mode="normal" in="SourceGraphic" in2="effect1_dropShadow_42_85" result="shape"/>
</filter>
<filter id="filter9_d_42_85" x="69.8965" y="118.496" width="49.7067" height="35.881" filterUnits="userSpaceOnUse" color-interpolation-filters="sRGB">
<feFlood flood-opacity="0" result="BackgroundImageFix"/>
<feColorMatrix in="SourceAlpha" type="matrix" values="0 0 0 0 0 0 0 0 0 0 0 0 0 0 0 0 0 0 127 0" result="hardAlpha"/>
<feOffset dx="-2" dy="-1"/>
<feGaussianBlur stdDeviation="1"/>
<feComposite in2="hardAlpha" operator="out"/>
<feColorMatrix type="matrix" values="0 0 0 0 0 0 0 0 0 0 0 0 0 0 0 0 0 0 0.17 0"/>
<feBlend mode="normal" in2="BackgroundImageFix" result="effect1_dropShadow_42_85"/>
<feBlend mode="normal" in="SourceGraphic" in2="effect1_dropShadow_42_85" result="shape"/>
</filter>
</defs>
</svg>
